# xmcd
#
# Track frame offsets: 
#        150
#        22091
#        52933
#        77470
#        99411
#        116485
#        137303
#        163709
#        185144
#        205625
#        225449
#        246763
#
# Disc length: 3649 seconds
#
# Revision: 0
# Processed by: cddbd v1.5.2PL0 Copyright (c) Steve Scherf et al.
# Submitted via: ExactAudioCopy v0.95b4
#
DISCID=8d0e3f0c
DTITLE=Jaromi - Polski blues, standards
DYEAR=2006
DGENRE=Blues
TTITLE0=Kiedy by³em ma³ym ch³opcem
TTITLE1=Szósta rano na trasie
TTITLE2=Straight Blues
TTITLE3=Blues córek naszych
TTITLE4=W tym miescie trudno jest zyc
TTITLE5=Miej nas w swojej opiece sw. McDonaldzie
TTITLE6=Blues Kubusia Puchatka
TTITLE7=Niech ¿yje wojna
TTITLE8=Blues o skrzynce pocztowej
TTITLE9=Jak siê czujesz ze mn¹ w ³ó¿ku
TTITLE10=Double Truble Blues
TTITLE11=Idzie dysc
EXTD=
EXTT0=
EXTT1=
EXTT2=
EXTT3=
EXTT4=
EXTT5=
EXTT6=
EXTT7=
EXTT8=
EXTT9=
EXTT10=
EXTT11=
PLAYORDER=
